<?xml version="1.0" encoding="utf-8"?>
<!-- Generator: Adobe Illustrator 22.1.0, SVG Export Plug-In . SVG Version: 6.00 Build 0)  -->
<svg version="1.1" xmlns="http://www.w3.org/2000/svg" xmlns:xlink="http://www.w3.org/1999/xlink" x="0px" y="0px"
	 viewBox="0 0 500 500" style="enable-background:new 0 0 500 500;" xml:space="preserve">
<style type="text/css">
	.st0{fill:none;stroke:#FF7272;stroke-width:10;stroke-miterlimit:10;}
	.st1{fill:none;stroke:#B7B7B7;stroke-width:10;stroke-miterlimit:10;}
	.st2{display:none;}
	.st3{display:inline;fill:none;stroke:#FF7272;stroke-width:10;stroke-miterlimit:10;}
	.st4{fill:none;stroke:#FFFFFF;stroke-width:10;stroke-miterlimit:10;}
</style>
<g id="Layer_1">
	<g id="Layer_1_1_">
		
			<image style="display:none;overflow:visible;enable-background:new    ;" width="286" height="273" xlink:href="1B1358AD.jpg"  transform="matrix(1 0 0 1 293.663 -541.0604)">
		</image>
		<circle class="st0" cx="428.8" cy="-407" r="232.1"/>
		<polyline class="st0" points="294.9,-420.8 383.6,-330.5 549.2,-488.6 		"/>
	</g>
	<g id="Layer_2_1_">
		<circle class="st0" cx="1123.3" cy="-277" r="232.1"/>
		<circle class="st1" cx="1066.6" cy="145.8" r="142.2"/>
		<line class="st1" x1="1130.3" y1="273.5" x2="1261.1" y2="460.4"/>
	</g>
	<g class="st2">
		<line class="st3" x1="250" y1="18.2" x2="250" y2="481.8"/>
		<line class="st3" x1="18.2" y1="250" x2="481.8" y2="250"/>
	</g>
	
		<image style="display:none;overflow:visible;" width="1300" height="1300" xlink:href="1B1358AF.jpg"  transform="matrix(0.9326 0 0 0.9326 -362.3148 -355.6779)">
	</image>
	<polygon class="st0" points="-253.2,-330.5 -162.5,-330.5 -162.5,-281.4 -131.7,-268.1 -95.8,-303 -32.8,-239 -64.7,-206.1 
		-53.7,-171.8 -4.3,-171.8 -4.3,-84.5 -51.9,-84.5 -64.5,-46.6 -33.3,-13.5 -94,48.2 -128.7,13.5 -163,32.1 -163,78.2 -251.7,78.2 
		-251.7,31.5 -288.3,13.9 -321.7,48.2 -385.3,-12.5 -350.3,-47.8 -363.2,-85.6 -413.7,-85.1 -413.7,-169.1 -363.7,-169.1 
		-350.3,-205.8 -386.3,-241.8 -324.3,-303.8 -288,-267.5 -252.7,-280.9 	"/>
	<circle class="st0" cx="-209" cy="-126.1" r="99.1"/>
	
		<image style="display:none;overflow:visible;" width="225" height="225" xlink:href="1B1358AA.jpg"  transform="matrix(3.7267 0 0 3.7267 -162.8871 -166)">
	</image>
</g>
<g id="Layer_2">
	<polyline class="st0" points="820.5,-139.5 694.6,-13.6 821.2,113 	"/>
	<line class="st0" x1="1143.9" y1="-11.6" x2="702" y2="-14.2"/>
	<polygon class="st4" points="247,273.5 203.7,198.5 290.3,198.5 	"/>
</g>
</svg>
