<?xml version="1.0" encoding="utf-8"?>
<!-- Generator: Adobe Illustrator 22.1.0, SVG Export Plug-In . SVG Version: 6.00 Build 0)  -->
<svg version="1.1" id="Layer_1" xmlns="http://www.w3.org/2000/svg" xmlns:xlink="http://www.w3.org/1999/xlink" x="0px" y="0px"
	 viewBox="0 0 500 500" style="enable-background:new 0 0 500 500;" xml:space="preserve">
<style type="text/css">
	.st0{fill:none;stroke:#FF7272;stroke-width:10;stroke-miterlimit:10;}
	.st1{fill:none;stroke:#B7B7B7;stroke-width:10;stroke-miterlimit:10;}
	.st2{display:none;}
	.st3{display:inline;fill:none;stroke:#FF7272;stroke-width:10;stroke-miterlimit:10;}
</style>
<g id="Layer_1_1_">
	
		<image style="display:none;overflow:visible;enable-background:new    ;" width="286" height="273" xlink:href="A731DA55.jpg"  transform="matrix(1 0 0 1 293.663 -541.0604)">
	</image>
	<circle class="st0" cx="428.8" cy="-407" r="232.1"/>
	<polyline class="st0" points="294.9,-420.8 383.6,-330.5 549.2,-488.6 	"/>
</g>
<g id="Layer_2_1_">
	<circle class="st0" cx="1123.3" cy="-277" r="232.1"/>
	<circle class="st1" cx="1066.6" cy="145.8" r="142.2"/>
	<line class="st1" x1="1130.3" y1="273.5" x2="1261.1" y2="460.4"/>
</g>
<g class="st2">
	<line class="st3" x1="250" y1="18.2" x2="250" y2="481.8"/>
	<line class="st3" x1="18.2" y1="250" x2="481.8" y2="250"/>
</g>
<image style="display:none;overflow:visible;" width="1300" height="1300" xlink:href="A731DA57.jpg"  transform="matrix(0.9326 0 0 0.9326 -362.3148 -355.6779)">
</image>
<polygon class="st0" points="200.7,40.5 291.3,40.5 291.3,89.6 322.2,102.8 358,68 421,132 389.2,164.8 400.2,199.1 449.5,199.1 
	449.5,286.5 402,286.5 389.4,324.4 420.5,357.5 359.9,419.1 325.2,384.5 290.9,403 290.9,449.1 202.2,449.1 202.2,402.5 
	165.5,384.8 132.2,419.1 68.5,358.5 103.5,323.1 90.7,285.3 40.2,285.8 40.2,201.8 90.2,201.8 103.5,165.1 67.5,129.1 129.5,67.1 
	165.9,103.5 201.2,90 "/>
<circle class="st0" cx="244.9" cy="244.8" r="99.1"/>
</svg>
