<?xml version="1.0" encoding="utf-8"?>
<!-- Generator: Adobe Illustrator 23.0.0, SVG Export Plug-In . SVG Version: 6.00 Build 0)  -->
<svg version="1.1" id="Layer_1" xmlns="http://www.w3.org/2000/svg" xmlns:xlink="http://www.w3.org/1999/xlink" x="0px" y="0px"
	 viewBox="0 0 500 500" style="enable-background:new 0 0 500 500;" xml:space="preserve">
<style type="text/css">
	.st0{fill:#4D7844;stroke:#FFFFFF;stroke-width:10;stroke-miterlimit:10;}
	.st1{fill:none;stroke:#FFFFFF;stroke-width:10;stroke-miterlimit:10;}
	.st2{fill:none;stroke:#FF7272;stroke-width:10;stroke-miterlimit:10;}
	.st3{display:none;}
	.st4{display:inline;fill:none;stroke:#FF7272;stroke-width:10;stroke-miterlimit:10;}
	.st5{fill:none;stroke:#020202;stroke-width:4;stroke-miterlimit:10;}
	.st6{fill:#FFFFFF;stroke:#020202;stroke-width:4;stroke-miterlimit:10;}
</style>
<g>
	<g id="Layer_1_1_">
		<circle class="st0" cx="248.7" cy="249.1" r="232.1"/>
		<polyline class="st1" points="114.8,235.3 203.5,325.6 369.1,167.5 		"/>
	</g>
	<g id="Layer_2_1_">
		<circle class="st2" cx="971.3" cy="388" r="232.1"/>
		
			<ellipse transform="matrix(0.7071 -0.7071 0.7071 0.7071 -305.4675 884.1776)" class="st1" cx="914.6" cy="810.8" rx="142.2" ry="142.2"/>
		<line class="st1" x1="978.3" y1="938.5" x2="1109.1" y2="1125.4"/>
	</g>
	<g class="st3">
		<line class="st4" x1="78.9" y1="671.3" x2="78.9" y2="1134.9"/>
		<line class="st4" x1="-152.9" y1="903.1" x2="310.7" y2="903.1"/>
	</g>
	<polygon class="st2" points="-424.3,322.6 -333.6,322.6 -333.6,371.7 -302.8,385 -266.9,350.1 -203.9,414.1 -235.8,447 
		-224.8,481.3 -175.4,481.3 -175.4,568.6 -223,568.6 -235.6,606.5 -204.4,639.6 -265.1,701.3 -299.8,666.6 -334.1,685.2 
		-334.1,731.3 -422.8,731.3 -422.8,684.6 -459.4,667 -492.8,701.3 -556.4,640.6 -521.4,605.3 -534.3,567.5 -584.8,568 -584.8,484 
		-534.8,484 -521.4,447.3 -557.4,411.3 -495.4,349.3 -459.1,385.6 -423.8,372.2 	"/>
	<circle class="st2" cx="-380.1" cy="527" r="99.1"/>
</g>
<g>
	<polyline class="st2" points="-444.1,-1076.8 -570,-950.9 -443.4,-824.3 	"/>
	<line class="st2" x1="-120.7" y1="-948.9" x2="-562.6" y2="-951.5"/>
	<polygon class="st1" points="-887.4,-982 -930.7,-1057 -844.1,-1057 	"/>
</g>
<polygon class="st5" points="-836.3,-621.4 -836.3,-838 -1196.3,-838 -1196.3,-621.4 -1239.4,-556.1 -1239.4,-523 -802.3,-523 
	-802.3,-555.8 "/>
<line class="st5" x1="-1239.2" y1="-556.4" x2="-802.3" y2="-556.4"/>
<g>
	<rect x="-1179.9" y="-786" class="st5" width="74.3" height="161.7"/>
	<g>
		<circle class="st5" cx="-1144.2" cy="-754.9" r="18.2"/>
		<circle class="st5" cx="-1144.2" cy="-754.9" r="6.2"/>
	</g>
	<g>
		<circle class="st5" cx="-1144.2" cy="-705.2" r="18.2"/>
		<circle class="st5" cx="-1144.2" cy="-705.2" r="6.2"/>
	</g>
	<g>
		<circle class="st5" cx="-1144.2" cy="-655.5" r="18.2"/>
		<circle class="st5" cx="-1144.2" cy="-655.5" r="6.2"/>
	</g>
</g>
<g>
	<rect x="-926" y="-788.1" class="st5" width="74.3" height="161.7"/>
	<g>
		<circle class="st5" cx="-890.3" cy="-757" r="18.2"/>
		<circle class="st5" cx="-890.3" cy="-757" r="6.2"/>
	</g>
	<g>
		<circle class="st5" cx="-890.3" cy="-707.2" r="18.2"/>
		<circle class="st5" cx="-890.3" cy="-707.3" r="6.2"/>
	</g>
	<g>
		<circle class="st5" cx="-890.3" cy="-657.5" r="18.2"/>
		<circle class="st5" cx="-890.3" cy="-657.5" r="6.2"/>
	</g>
</g>
<rect x="-1129.2" y="-620.3" class="st6" width="225.7" height="51.8"/>
<polygon class="st6" points="-1105.1,-646.4 -925.5,-646.4 -902.6,-623.4 -1127.4,-623.4 "/>
<g>
	<ellipse class="st6" cx="-1063.6" cy="-634.9" rx="19.1" ry="5.9"/>
	<g>
		<ellipse class="st6" cx="-968.3" cy="-634.9" rx="19.1" ry="5.9"/>
	</g>
</g>
</svg>
