<?xml version="1.0" encoding="utf-8"?>
<!-- Generator: Adobe Illustrator 23.0.0, SVG Export Plug-In . SVG Version: 6.00 Build 0)  -->
<svg version="1.1" id="Layer_1" xmlns="http://www.w3.org/2000/svg" xmlns:xlink="http://www.w3.org/1999/xlink" x="0px" y="0px"
	 viewBox="0 0 500 500" style="enable-background:new 0 0 500 500;" xml:space="preserve">
<style type="text/css">
	.st0{fill:none;stroke:#7BC167;stroke-width:10;stroke-miterlimit:10;}
	.st1{fill:none;stroke:#FF7272;stroke-width:10;stroke-miterlimit:10;}
	.st2{fill:none;stroke:#FFFFFF;stroke-width:10;stroke-miterlimit:10;}
	.st3{display:none;}
	.st4{display:inline;fill:none;stroke:#FF7272;stroke-width:10;stroke-miterlimit:10;}
	.st5{fill:none;stroke:#020202;stroke-width:4;stroke-miterlimit:10;}
	.st6{fill:#FFFFFF;stroke:#020202;stroke-width:4;stroke-miterlimit:10;}
</style>
<g>
	<g id="Layer_1_1_">
		<circle class="st0" cx="-449.7" cy="-386.6" r="232.1"/>
		<polyline class="st0" points="-583.6,-400.4 -494.9,-310.1 -329.3,-468.2 		"/>
	</g>
	<g id="Layer_2_1_">
		<circle class="st1" cx="266.9" cy="-247.6" r="232.1"/>
		
			<ellipse transform="matrix(0.7071 -0.7071 0.7071 0.7071 -62.2901 199.9367)" class="st2" cx="210.2" cy="175.2" rx="142.2" ry="142.2"/>
		<line class="st2" x1="273.9" y1="302.9" x2="404.7" y2="489.8"/>
	</g>
	<g class="st3">
		<line class="st4" x1="-625.5" y1="35.6" x2="-625.5" y2="499.2"/>
		<line class="st4" x1="-857.3" y1="267.4" x2="-393.7" y2="267.4"/>
	</g>
	<polygon class="st1" points="-1128.7,-313.1 -1038,-313.1 -1038,-264 -1007.2,-250.7 -971.3,-285.6 -908.3,-221.6 -940.2,-188.7 
		-929.2,-154.4 -879.8,-154.4 -879.8,-67.1 -927.4,-67.1 -940,-29.2 -908.8,3.9 -969.5,65.6 -1004.2,30.9 -1038.5,49.5 
		-1038.5,95.6 -1127.2,95.6 -1127.2,48.9 -1163.8,31.3 -1197.2,65.6 -1260.8,4.9 -1225.8,-30.4 -1238.7,-68.2 -1289.2,-67.7 
		-1289.2,-151.7 -1239.2,-151.7 -1225.8,-188.4 -1261.8,-224.4 -1199.8,-286.4 -1163.5,-250.1 -1128.2,-263.5 	"/>
	<circle class="st1" cx="-1084.5" cy="-108.7" r="99.1"/>
</g>
<g>
	<polyline class="st1" points="-444.1,-1076.8 -570,-950.9 -443.4,-824.3 	"/>
	<line class="st1" x1="-120.7" y1="-948.9" x2="-562.6" y2="-951.5"/>
	<polygon class="st2" points="-887.4,-982 -930.7,-1057 -844.1,-1057 	"/>
</g>
<polygon class="st5" points="-836.3,-621.4 -836.3,-838 -1196.3,-838 -1196.3,-621.4 -1239.4,-556.1 -1239.4,-523 -802.3,-523 
	-802.3,-555.8 "/>
<line class="st5" x1="-1239.2" y1="-556.4" x2="-802.3" y2="-556.4"/>
<g>
	<rect x="-1179.9" y="-786" class="st5" width="74.3" height="161.7"/>
	<g>
		<circle class="st5" cx="-1144.2" cy="-754.9" r="18.2"/>
		<circle class="st5" cx="-1144.2" cy="-754.9" r="6.2"/>
	</g>
	<g>
		<circle class="st5" cx="-1144.2" cy="-705.2" r="18.2"/>
		<circle class="st5" cx="-1144.2" cy="-705.2" r="6.2"/>
	</g>
	<g>
		<circle class="st5" cx="-1144.2" cy="-655.5" r="18.2"/>
		<circle class="st5" cx="-1144.2" cy="-655.5" r="6.2"/>
	</g>
</g>
<g>
	<rect x="-926" y="-788.1" class="st5" width="74.3" height="161.7"/>
	<g>
		<circle class="st5" cx="-890.3" cy="-757" r="18.2"/>
		<circle class="st5" cx="-890.3" cy="-757" r="6.2"/>
	</g>
	<g>
		<circle class="st5" cx="-890.3" cy="-707.2" r="18.2"/>
		<circle class="st5" cx="-890.3" cy="-707.3" r="6.2"/>
	</g>
	<g>
		<circle class="st5" cx="-890.3" cy="-657.5" r="18.2"/>
		<circle class="st5" cx="-890.3" cy="-657.5" r="6.2"/>
	</g>
</g>
<rect x="-1129.2" y="-620.3" class="st6" width="225.7" height="51.8"/>
<polygon class="st6" points="-1105.1,-646.4 -925.5,-646.4 -902.6,-623.4 -1127.4,-623.4 "/>
<g>
	<ellipse class="st6" cx="-1063.6" cy="-634.9" rx="19.1" ry="5.9"/>
	<g>
		<ellipse class="st6" cx="-968.3" cy="-634.9" rx="19.1" ry="5.9"/>
	</g>
</g>
</svg>
