<?xml version="1.0" encoding="utf-8"?>
<!-- Generator: Adobe Illustrator 23.0.0, SVG Export Plug-In . SVG Version: 6.00 Build 0)  -->
<svg version="1.1" id="Layer_1" xmlns="http://www.w3.org/2000/svg" xmlns:xlink="http://www.w3.org/1999/xlink" x="0px" y="0px"
	 viewBox="0 0 500 500" style="enable-background:new 0 0 500 500;" xml:space="preserve">
<style type="text/css">
	.st0{fill:none;stroke:#7BC167;stroke-width:10;stroke-miterlimit:10;}
	.st1{fill:none;stroke:#FF7272;stroke-width:10;stroke-miterlimit:10;}
	.st2{fill:none;stroke:#B7B7B7;stroke-width:10;stroke-miterlimit:10;}
	.st3{display:none;}
	.st4{display:inline;fill:none;stroke:#FF7272;stroke-width:10;stroke-miterlimit:10;}
	.st5{fill:none;stroke:#FFFFFF;stroke-width:10;stroke-miterlimit:10;}
	.st6{fill:none;stroke:#FFFFFF;stroke-width:5;stroke-miterlimit:10;}
	.st7{fill:#FFFFFF;stroke:#FFFFFF;stroke-width:10;stroke-miterlimit:10;}
	.st8{fill:#FFFFFF;stroke:#FFFFFF;stroke-width:4;stroke-miterlimit:10;}
	.st9{fill:#FFFFFF;stroke:#FFFFFF;stroke-width:2;stroke-miterlimit:10;}
</style>
<g>
	<g id="Layer_1_1_">
		<circle class="st0" cx="815" cy="550.7" r="232.1"/>
		<polyline class="st0" points="681.1,536.9 769.8,627.2 935.4,469.1 		"/>
	</g>
	<g id="Layer_2_1_">
		<circle class="st1" cx="1512.5" cy="677.7" r="232.1"/>
		
			<ellipse transform="matrix(0.7071 -0.7071 0.7071 0.7071 -351.8119 1351.7241)" class="st2" cx="1455.8" cy="1100.5" rx="142.2" ry="142.2"/>
		<line class="st2" x1="1519.5" y1="1228.2" x2="1650.3" y2="1415.1"/>
	</g>
	<g class="st3">
		<line class="st4" x1="639.2" y1="972.9" x2="639.2" y2="1436.5"/>
		<line class="st4" x1="407.4" y1="1204.7" x2="871" y2="1204.7"/>
	</g>
	<polygon class="st1" points="136,624.2 226.7,624.2 226.7,673.3 257.5,686.6 293.4,651.7 356.4,715.7 324.5,748.6 335.5,782.9 
		384.9,782.9 384.9,870.2 337.3,870.2 324.7,908.1 355.9,941.2 295.2,1002.9 260.5,968.2 226.2,986.8 226.2,1032.9 137.5,1032.9 
		137.5,986.2 100.9,968.6 67.5,1002.9 3.9,942.2 38.9,906.9 26,869.1 -24.5,869.6 -24.5,785.6 25.5,785.6 38.9,748.9 2.9,712.9 
		64.9,650.9 101.2,687.2 136.5,673.8 	"/>
	<circle class="st1" cx="180.2" cy="828.6" r="99.1"/>
</g>
<g>
	<polyline class="st1" points="820.5,-139.5 694.6,-13.6 821.2,113 	"/>
	<line class="st1" x1="1143.9" y1="-11.6" x2="702" y2="-14.2"/>
	<polygon class="st5" points="377.3,-44.7 334,-119.7 420.6,-119.7 	"/>
</g>
<image style="display:none;overflow:visible;" width="980" height="964" xlink:href="../../../img_309446.png"  transform="matrix(0.4718 0 0 0.4718 18.8189 25.121)">
</image>
<polygon class="st5" points="428.3,315.9 428.3,99.4 68.3,99.4 68.3,315.9 25.2,381.2 25.2,414.3 462.3,414.3 462.3,381.5 "/>
<line class="st5" x1="25.5" y1="380.9" x2="462.3" y2="380.9"/>
<g>
	<rect x="84.8" y="151.3" class="st5" width="74.3" height="161.7"/>
	<g>
		<circle class="st5" cx="120.4" cy="182.4" r="18.2"/>
		<circle class="st6" cx="120.4" cy="182.4" r="6.2"/>
	</g>
	<g>
		<circle class="st5" cx="120.4" cy="232.2" r="18.2"/>
		<circle class="st6" cx="120.4" cy="232.1" r="6.2"/>
	</g>
	<g>
		<circle class="st5" cx="120.4" cy="281.9" r="18.2"/>
		<circle class="st6" cx="120.4" cy="281.9" r="6.2"/>
	</g>
</g>
<g>
	<rect x="338.6" y="149.2" class="st5" width="74.3" height="161.7"/>
	<g>
		<circle class="st5" cx="374.3" cy="180.4" r="18.2"/>
		<circle class="st6" cx="374.3" cy="180.4" r="6.2"/>
	</g>
	<g>
		<circle class="st5" cx="374.3" cy="230.1" r="18.2"/>
		<circle class="st6" cx="374.3" cy="230.1" r="6.2"/>
	</g>
	<g>
		<circle class="st5" cx="374.3" cy="279.8" r="18.2"/>
		<circle class="st6" cx="374.3" cy="279.8" r="6.2"/>
	</g>
</g>
<rect x="135.4" y="317.1" class="st7" width="225.7" height="51.8"/>
<polygon class="st8" points="159.5,287.9 339.1,287.9 362,310.9 135.3,311 "/>
<g>
	<ellipse class="st9" cx="201" cy="299.4" rx="19.1" ry="5.9"/>
	<g>
		<ellipse class="st9" cx="296.3" cy="299.4" rx="19.1" ry="5.9"/>
	</g>
</g>
</svg>
